<?xml version="1.0" encoding="utf-8"?>
<!-- Generator: Adobe Illustrator 23.0.1, SVG Export Plug-In . SVG Version: 6.00 Build 0)  -->
<svg version="1.1" id="Layer_1" xmlns="http://www.w3.org/2000/svg" xmlns:xlink="http://www.w3.org/1999/xlink" x="0px" y="0px"
	 viewBox="0 0 1920 1080" style="enable-background:new 0 0 1920 1080;" xml:space="preserve">
<style type="text/css">
	.st0{fill:#E86224;}
	.st1{fill:#FFFFFF;}
	.st2{font-family:'Oduda-Bold';}
	.st3{font-size:182.1227px;}
	.st4{font-size:182.1666px;}
	.st5{font-size:182.1221px;}
</style>
<path class="st0" d="M975.58,950.12C790.53,987.07,612.51,829.13,564.4,585.3c-39.99-202.64,106.86-410.25,319.98-452.4
	c217.57-43.03,423.55,99.09,466.9,322.13C1400.57,708.7,1260.55,893.21,975.58,950.12"/>
<text transform="matrix(1 -1.030000e-03 1.063753e-03 1.0328 668.8815 523.7898)" class="st1 st2 st3">crypt</text>
<text transform="matrix(1 7.700000e-03 -7.951636e-03 1.0326 1085.4894 525.2254)" class="st1 st2 st4">o</text>
<text transform="matrix(1 -1.030000e-03 1.063794e-03 1.0328 667.9746 667.2674)" class="st1 st2 st5">baraz</text>
<text transform="matrix(1 7.700000e-03 -7.951636e-03 1.0326 1134.8834 666.5083)" class="st1 st2 st4">a</text>
</svg>
